<svg id="visual" viewBox="0 0 900 600" width="900" height="600" xmlns="http://www.w3.org/2000/svg" xmlns:xlink="http://www.w3.org/1999/xlink" version="1.1"><path d="M0 551L9.3 556.3C18.7 561.7 37.3 572.3 56.2 578.7C75 585 94 587 112.8 582C131.7 577 150.3 565 169 561C187.7 557 206.3 561 225 561.5C243.7 562 262.3 559 281.2 563.3C300 567.7 319 579.3 337.8 583C356.7 586.7 375.3 582.3 394 579.2C412.7 576 431.3 574 450 572.5C468.7 571 487.3 570 506.2 567.5C525 565 544 561 562.8 561.3C581.7 561.7 600.3 566.3 619 565C637.7 563.7 656.3 556.3 675 559C693.7 561.7 712.3 574.3 731.2 573.8C750 573.3 769 559.7 787.8 553C806.7 546.3 825.3 546.7 844 553C862.7 559.3 881.3 571.7 890.7 577.8L900 584L900 601L890.7 601C881.3 601 862.7 601 844 601C825.3 601 806.7 601 787.8 601C769 601 750 601 731.2 601C712.3 601 693.7 601 675 601C656.3 601 637.7 601 619 601C600.3 601 581.7 601 562.8 601C544 601 525 601 506.2 601C487.3 601 468.7 601 450 601C431.3 601 412.7 601 394 601C375.3 601 356.7 601 337.8 601C319 601 300 601 281.2 601C262.3 601 243.7 601 225 601C206.3 601 187.7 601 169 601C150.3 601 131.7 601 112.8 601C94 601 75 601 56.2 601C37.3 601 18.7 601 9.3 601L0 601Z" fill="#C57B57" stroke-linecap="round" stroke-linejoin="miter"></path></svg>